P2
# CREATOR: Diamond Light Source Beamline I02
61 61
255
0
0
0
0
0
0
0
0
0
0
0
0
0
0
0
0
0
0
0
0
0
0
0
0
0
0
0
0
0
0
1
1
1
1
1
1
0
0
0
0
0
0
0
0
0
0
0
0
0
0
0
0
0
0
0
0
0
0
0
0
0
0
0
0
0
0
0
0
0
0
0
0
0
0
0
0
1
1
1
2
2
3
3
4
4
4
4
5
5
5
4
4
4
4
4
4
4
4
4
4
4
4
4
4
3
3
3
3
2
2
2
1
1
1
1
0
0
0
0
0
0
0
0
0
0
0
0
0
0
0
0
0
0
0
0
1
1
1
2
2
3
4
5
6
7
8
8
8
9
9
9
9
8
8
8
8
7
7
7
7
7
7
7
7
7
7
6
6
5
4
4
3
2
2
1
1
1
1
0
0
0
0
0
0
0
0
0
0
0
0
0
0
0
0
0
1
1
1
2
3
4
5
6
8
9
10
11
12
13
13
13
13
13
13
12
12
11
11
11
11
11
11
11
11
11
10
10
9
8
7
6
5
4
3
3
2
2
1
1
1
0
0
0
0
0
0
0
0
0
0
0
0
0
0
0
1
1
1
2
2
4
5
7
9
10
12
14
15
16
17
17
18
18
17
17
17
16
16
15
15
15
15
15
15
15
14
14
13
12
11
10
9
7
6
5
4
3
2
2
1
1
1
0
0
0
0
0
0
0
0
0
0
0
1
1
1
1
1
2
3
4
5
7
9
12
14
16
18
20
21
22
23
23
23
23
22
22
21
21
20
20
19
19
19
19
19
19
18
17
16
14
13
11
9
8
6
5
4
3
2
2
1
1
1
0
0
0
0
0
1
1
1
1
2
2
2
3
3
3
4
5
7
8
11
13
17
19
22
25
27
29
30
31
31
31
30
30
29
29
28
27
27
26
26
26
26
25
25
24
22
21
19
17
14
12
10
8
6
5
4
3
2
2
1
1
1
0
0
0
1
1
2
2
3
4
4
5
6
7
8
9
10
12
14
18
21
25
28
32
35
38
40
41
42
43
43
43
42
41
40
40
39
38
37
37
36
36
35
34
32
31
28
26
23
20
17
14
12
10
8
6
5
4
3
2
1
1
0
0
1
2
2
3
4
5
6
8
9
10
11
13
15
17
19
23
26
31
36
40
44
48
52
55
56
58
58
58
58
58
57
56
55
54
53
52
52
51
50
48
47
45
42
39
36
32
28
25
21
18
15
12
10
8
6
5
3
2
1
1
0
1
2
3
5
6
8
9
11
12
14
16
18
21
23
27
31
36
41
47
52
57
62
66
70
72
74
75
75
75
75
74
73
72
71
69
68
67
66
65
63
61
58
55
51
47
42
38
33
29
24
21
17
14
12
9
7
5
4
2
1
0
1
3
4
6
8
9
11
14
16
18
21
23
26
30
34
39
45
51
58
64
70
76
81
85
88
90
91
91
92
91
90
89
88
87
86
84
83
81
80
77
75
71
67
62
57
52
46
41
36
31
26
22
18
15
12
9
7
5
3
1
0
1
3
5
7
9
11
14
16
19
22
25
28
32
36
41
47
54
61
69
76
83
90
95
100
103
106
107
108
109
108
108
106
105
104
102
101
99
97
95
92
88
84
79
74
68
61
55
49
42
37
31
26
22
18
15
11
8
6
3
1
0
2
3
6
8
11
13
16
19
23
26
30
34
38
43
49
56
63
72
80
89
97
104
111
116
120
123
125
126
126
126
125
124
123
121
119
118
116
113
110
107
103
98
92
86
79
72
64
57
50
43
37
31
26
22
18
14
10
7
4
1
0
2
4
7
9
12
16
19
23
26
30
35
39
44
50
56
64
73
82
92
101
110
118
125
131
136
139
141
142
143
143
143
141
140
138
137
135
132
130
126
122
118
112
106
98
91
83
74
66
58
51
44
38
32
26
21
17
12
8
4
1
0
2
5
8
11
14
18
21
25
30
34
39
44
49
55
63
71
80
90
101
111
121
130
137
144
148
152
155
156
157
157
157
156
154
153
151
149
147
144
140
136
131
124
117
109
101
92
83
74
66
58
50
43
37
31
25
20
15
10
5
1
0
2
5
8
11
15
19
23
27
31
36
41
46
52
59
66
75
85
96
107
117
128
137
145
152
157
161
164
165
166
166
166
165
164
163
161
159
156
153
150
145
140
133
126
117
108
99
89
80
71
62
54
47
40
34
28
22
16
11
6
1
0
3
5
8
12
15
19
23
27
31
36
41
46
52
59
67
76
86
97
108
119
130
140
148
155
160
164
167
169
170
170
170
169
168
167
165
163
161
158
154
149
143
136
129
120
111
101
91
82
73
64
56
48
41
35
28
23
17
11
6
1
0
2
5
8
11
14
18
22
26
30
34
39
44
50
57
65
74
84
96
107
119
130
140
148
155
160
164
167
169
170
170
170
169
168
167
165
163
161
158
154
149
143
136
128
119
110
100
90
80
71
62
54
47
40
34
28
22
16
11
6
1
0
2
5
8
11
14
17
21
25
29
33
38
43
48
55
63
72
83
95
107
119
130
140
149
156
161
165
168
169
170
170
170
170
169
167
166
164
162
158
154
149
143
136
127
118
108
98
88
78
69
60
52
45
38
32
26
21
15
10
6
1
0
2
5
8
11
14
17
21
25
29
33
37
43
48
55
63
73
84
96
108
120
131
142
151
158
163
167
170
171
172
172
172
171
170
169
168
166
163
160
156
150
144
136
127
118
107
97
86
76
67
58
50
43
36
30
25
20
15
10
5
1
0
3
5
8
11
14
18
21
25
29
33
38
43
49
55
64
73
85
97
110
122
134
144
153
161
166
170
172
174
175
175
175
174
173
172
170
168
166
163
158
152
145
137
128
118
107
97
86
76
66
57
49
42
36
30
24
19
14
10
5
1
0
3
5
8
11
14
18
21
25
29
33
37
42
48
55
64
74
85
98
111
124
136
146
156
163
168
172
175
176
177
178
177
177
176
175
173
171
169
165
161
154
147
139
129
118
107
96
85
75
65
56
48
41
35
29
24
19
14
9
5
1
0
2
5
8
11
14
17
21
24
28
32
37
42
48
55
64
74
86
99
113
126
138
149
159
166
172
176
179
180
181
182
181
181
180
179
178
176
173
169
164
158
150
141
131
120
108
97
85
75
65
56
48
40
34
28
23
18
13
9
5
1
0
2
4
7
10
13
16
20
23
27
31
36
41
48
55
64
75
88
102
116
129
143
154
164
172
178
182
185
187
188
188
188
188
187
186
185
183
180
176
170
163
155
145
134
123
110
98
86
75
65
56
48
40
34
28
22
18
13
9
5
1
0
2
4
6
9
12
15
19
23
27
31
36
41
48
56
66
77
91
105
120
135
149
161
171
180
186
191
194
196
197
198
198
198
197
196
195
193
189
185
179
171
162
152
140
128
115
102
90
78
67
58
49
41
35
29
23
18
13
9
5
1
0
2
4
6
9
12
15
19
23
27
31
36
42
49
58
68
81
95
110
126
141
156
169
180
189
195
200
204
206
207
208
209
209
208
207
206
204
200
196
189
181
171
160
148
134
121
107
94
82
70
60
51
43
36
30
24
19
14
9
5
1
0
2
4
6
9
12
16
20
24
28
33
38
45
52
61
72
85
100
116
133
149
164
178
189
199
206
211
215
217
219
220
221
221
220
220
218
216
212
207
200
191
181
169
156
142
127
113
99
86
75
64
55
46
39
32
26
20
15
10
6
1
0
2
4
7
10
13
17
21
25
30
35
41
48
56
65
77
91
106
123
140
157
173
187
199
209
217
222
226
229
231
232
233
233
233
232
231
229
225
219
212
203
192
179
165
150
135
120
106
92
80
69
59
50
42
35
28
22
17
11
6
1
0
2
4
7
10
14
18
22
27
32
38
44
51
59
69
81
95
111
129
146
164
180
195
208
218
226
232
236
239
241
243
244
244
244
244
243
240
236
231
223
213
202
189
174
159
144
128
113
99
87
75
65
55
47
39
32
25
19
13
7
1
0
2
4
7
10
14
18
23
27
33
38
45
52
61
71
83
97
114
132
150
168
184
200
213
223
232
238
242
246
248
250
251
252
252
251
250
248
244
238
231
221
209
196
181
165
149
133
118
104
91
79
69
59
50
42
34
27
20
14
7
1
0
2
4
7
10
14
18
22
27
32
38
44
51
60
70
83
97
114
132
150
168
185
201
214
225
233
240
244
248
251
252
254
254
255
254
253
251
247
241
233
223
211
198
183
167
151
135
120
106
92
81
70
60
51
43
35
28
21
14
8
1
0
2
4
6
10
13
17
22
26
31
37
44
51
59
70
82
97
113
131
150
168
185
200
214
225
234
240
245
248
251
253
254
255
255
255
253
251
247
241
233
223
211
198
183
167
151
135
119
105
92
80
69
59
50
42
34
27
20
14
7
1
0
2
4
6
9
13
17
21
26
31
37
43
50
59
69
82
96
113
130
149
167
184
200
213
225
233
240
244
248
251
252
253
254
254
254
252
250
246
240
232
222
209
196
181
165
149
133
117
103
90
78
67
58
49
41
33
26
20
13
7
1
0
2
4
6
9
13
17
21
26
31
37
43
51
59
69
82
96
112
130
148
166
184
199
213
224
233
239
244
248
250
252
253
254
254
253
251
249
244
238
230
220
208
194
179
163
147
131
116
101
88
76
66
56
47
39
32
25
19
13
7
1
0
2
4
6
9
13
17
21
26
32
37
44
51
59
70
82
96
112
130
148
166
183
199
212
224
233
239
244
247
250
251
252
253
253
252
250
247
243
236
228
218
206
192
178
162
146
130
115
100
87
76
65
55
46
38
31
24
18
12
7
1
0
2
4
6
9
13
17
21
26
31
37
44
51
59
69
81
95
111
128
146
163
180
196
210
221
230
237
242
245
248
249
250
250
250
249
247
244
239
233
225
215
203
190
175
160
144
129
113
99
86
75
64
55
46
38
31
24
18
12
6
1
0
1
3
6
9
12
16
20
25
30
36
42
49
57
66
78
91
107
123
141
158
175
190
204
216
224
231
236
239
242
243
244
244
243
242
240
237
233
227
219
209
198
185
171
156
140
125
110
97
84
73
62
53
44
37
30
23
17
11
6
1
0
1
3
5
7
11
14
18
23
28
33
39
45
53
62
73
86
101
117
134
151
167
183
196
207
216
223
228
231
233
235
235
235
234
233
231
228
223
218
210
201
190
177
163
149
134
119
105
92
79
68
58
49
41
34
27
21
15
10
6
1
0
1
2
4
6
9
12
16
20
25
30
36
42
50
58
69
81
96
111
128
144
160
175
189
200
209
215
220
223
225
226
227
226
226
224
222
219
214
208
201
192
181
169
155
141
127
113
99
86
74
63
54
45
37
30
24
18
13
9
5
1
0
1
2
3
5
8
11
15
19
24
29
34
40
47
56
66
78
91
107
123
139
154
169
182
193
202
208
213
216
218
219
219
219
218
216
214
210
206
200
193
184
173
162
149
135
121
107
94
81
70
59
50
42
34
28
22
17
12
8
4
1
0
0
1
3
5
8
11
14
18
22
27
32
38
44
52
62
73
86
101
116
131
146
161
173
184
192
199
203
206
208
209
209
209
207
206
203
200
196
190
184
175
165
154
142
129
115
102
89
77
66
56
47
40
33
26
21
16
11
7
4
1
0
0
1
3
4
7
9
13
16
20
24
28
34
40
47
55
66
78
91
106
120
134
148
160
170
178
184
188
191
193
194
194
193
192
190
188
185
181
176
170
162
153
143
132
120
107
95
83
72
61
52
44
37
30
24
19
14
10
7
4
1
0
0
1
2
4
5
8
10
13
16
20
24
28
33
39
47
56
67
80
93
106
120
132
144
153
161
166
170
173
174
175
175
174
173
172
170
167
164
159
154
147
139
129
119
108
97
85
74
64
55
46
39
32
27
21
17
13
9
6
3
1
0
0
1
2
3
5
6
8
11
13
16
19
23
27
32
39
47
57
68
80
92
104
116
126
135
142
147
150
153
154
154
154
154
153
152
150
148
145
141
136
130
123
114
105
96
85
75
66
56
48
40
34
28
23
19
15
11
8
5
3
1
0
0
1
1
2
3
5
6
8
10
12
14
17
21
25
31
38
46
56
67
78
90
100
110
118
124
129
132
134
135
135
135
134
134
133
131
129
127
124
119
114
108
100
92
83
74
65
56
48
41
34
28
24
19
15
12
9
7
5
3
1
0
0
0
1
2
3
4
5
6
7
9
11
13
16
19
24
30
38
47
57
67
77
87
96
103
109
113
116
117
118
118
118
117
117
116
114
113
111
108
104
100
94
87
80
72
64
56
48
41
34
28
23
19
16
12
10
7
5
4
2
1
0
0
1
1
1
2
3
4
5
6
7
8
10
12
15
19
24
31
39
48
57
66
75
84
90
96
99
101
103
103
103
103
103
102
101
100
98
97
94
91
87
82
76
70
63
56
49
42
35
29
24
20
16
13
10
8
6
5
3
2
1
0
0
1
1
1
2
2
3
4
4
5
6
7
9
11
14
19
24
31
39
48
56
64
72
78
83
86
88
89
90
90
89
89
88
87
86
85
84
82
79
76
72
66
61
55
48
42
36
30
25
21
17
14
11
9
7
5
4
3
2
1
0
0
0
1
1
1
2
2
2
3
3
4
4
5
7
10
14
19
25
32
40
47
55
62
67
71
74
76
77
77
77
77
76
76
75
74
73
72
71
69
66
62
57
53
47
42
36
31
26
21
17
14
11
9
7
6
4
3
2
2
1
0
0
0
0
1
1
1
1
1
1
2
2
2
3
5
7
10
15
20
27
33
40
47
54
59
63
65
67
68
68
68
67
67
66
66
65
64
63
62
60
57
54
50
46
41
36
31
26
22
18
14
11
9
7
6
4
3
3
2
1
1
0
0
0
0
0
0
0
0
1
1
1
1
1
2
3
5
8
12
17
23
29
36
42
48
53
56
59
60
61
61
61
60
60
59
59
58
57
56
55
53
51
48
45
41
36
32
27
23
19
15
12
10
8
6
5
3
3
2
1
1
1
0
0
0
0
0
0
0
0
0
0
1
1
1
1
2
4
7
10
15
20
26
32
38
43
47
51
53
54
55
55
55
54
54
53
53
52
51
50
49
48
46
43
40
37
33
28
24
20
17
13
11
8
7
5
4
3
2
2
1
1
1
0
0
0
0
0
0
0
0
0
0
0
1
1
1
2
3
6
9
13
18
23
28
34
38
42
45
47
49
49
49
49
49
48
48
47
46
46
45
44
43
41
39
36
33
29
25
22
18
15
12
9
7
6
4
3
3
2
1
1
1
1
0
0
0
0
0
0
0
0
0
0
0
0
1
1
2
3
5
8
11
15
20
25
30
34
37
40
42
43
44
44
43
43
43
42
41
41
40
40
39
38
36
34
31
29
26
23
19
16
13
11
8
7
5
4
3
2
2
1
1
1
1
0
0
0
0
0
0
0
0
0
0
0
0
0
1
1
2
4
7
10
13
17
21
25
29
32
35
36
37
38
38
38
37
37
36
36
35
35
34
33
32
31
29
27
25
22
20
17
14
12
9
7
6
5
3
3
2
1
1
1
1
0
0
0
0
0
0
0
0
0
0
0
0
0
0
1
1
2
3
5
8
11
14
18
21
24
27
29
31
31
32
32
32
31
31
31
30
30
29
29
28
27
26
25
23
21
19
17
14
12
10
8
6
5
4
3
2
2
1
1
1
1
0
0
0
0
0
0
0
0
0
0
0
0
0
0
0
1
1
3
4
6
9
11
14
17
20
22
24
25
26
26
26
26
25
25
25
24
24
24
23
23
22
21
20
19
17
15
13
12
10
8
6
5
4
3
2
2
1
1
1
1
0
0
0
0
0
0
0
0
0
0
0
0
0
0
0
0
1
1
2
3
5
7
9
11
13
15
17
18
19
19
20
20
20
19
19
19
18
18
18
18
17
17
16
15
14
13
12
10
9
7
6
5
4
3
2
2
1
1
1
1
0
0
0
0
0
0
0
0
0
0
0
0
0
0
0
0
0
0
1
1
2
3
4
6
7
9
10
11
12
13
13
13
13
13
13
13
13
12
12
12
12
12
11
11
10
10
9
8
7
6
5
4
3
3
2
2
1
1
1
1
0
0
0
0
0
0
0
0
0
0
0
0
0
0
0
0
0
0
0
0
1
1
2
2
3
4
4
5
6
6
6
7
7
7
7
7
7
6
6
6
6
6
6
6
6
5
5
4
4
4
3
3
2
2
1
1
1
1
1
0
0
0
0
0
0
0
0
0
0
0
0
0
0
0
0
0
0
0
0
0
0
0
0
0
0
0
0
0
0
0
0
0
0
0
0
0
0
0
0
0
0
0
0
0
0
0
0
0
0
0
0
0
0
0
0
0
0
0
0
0
0
0
0
0
0
0
